<svg width="64" height="64" fill="none" version="1.1" viewBox="0 0 64 64" xmlns="http://www.w3.org/2000/svg">
  <g transform="matrix(1.7297 0 0 1.7297 6.0541 5.5e-7)">
    <g>
      <path d="m26.5 15.5-1 4 4.5 3.5z" fill="#00a349"/>
      <path d="m21.5 23.5-1 1 1.5 1.5 2 3 0.5 3.5 1.5-4.5-1-3z" fill="#007334"/>
      <path d="m23 29-1.5-2.5-0.5 2-2 0.5-1 2.5-1 5.5 5.5-5.5z" fill="#00451f"/>
      <path d="m13 23.5h4v-2.5l1-3 7.5-1.5 0.5-1.5-2-2-5 1.5 4-3.5h-16l4 3.5-5-1.5-2 2 0.5 1.5 7.5 1.5 1 3z" fill="#00a349"/>
      <path d="m15 30.5 3-1.5-3-1.5-3 1.5z" fill="#00451f"/>
    </g>
    <path d="m15 26 2-2h-4z" fill="#00451f"/>
    <g>
      <path d="m11.5 18.5-3.5-1 1.5 1.5 2.5 1z" fill="#01ff72"/>
      <path d="m18.5 18.5 3.5-1-1.5 1.5-2.5 1z" fill="#01ff72"/>
      <path d="m29 4.5-2.5 9.5-1-3 2.5-5.5z" fill="#00451f"/>
      <path d="m29.5 0-0.5 4-1 1v-1.5z" fill="#007334"/>
      <path d="m27.5 4-9.5 7 2 2 3-2 4.5-5.5z" fill="#00db63"/>
      <path d="m0.5 0 0.5 4 1 1v-1.5z" fill="#007334"/>
      <path d="m14.5 27-5.5-1 0.5 2 2 0.5z" fill="#007334"/>
      <path d="m4.5 17 0.5 2 5.5 5.5-1.5 1.5 5.5 1v-1l-2-2v-3l-3.5-1.5-1.5-2z" fill="#00a349"/>
      <path d="m21 26-5.5 1 3 1.5 2-0.5z" fill="#007334"/>
      <path d="m25.5 17-3 0.5-1.5 2-3.5 1.5v3l-2 2v1l5.5-1-1.5-1.5 5.5-5.5z" fill="#00a349"/>
      <path d="m2.5 4v1.5l4.5 5.5 3 2 2-2z" fill="#00db63"/>
      <path d="m1 4.5 2.5 9.5 1.5-3-3-5.5z" fill="#00451f"/>
      <path d="m25 20-3 3 3.5 1.5 3 4c-0.16667-2-0.33333-4-0.5-6-1-0.83333-2-1.6667-3-2.5z" fill="#00a349"/>
      <path d="m3.5 15.5 1 4-4.5 3.5z" fill="#00a349"/>
      <path d="m7 29 1.5-2.5 0.5 2 2 0.5 1.5 2.5 0.5 5.5-5.5-5.5z" fill="#00451f"/>
      <path d="m8.5 23.5 1 1-1.5 1.5-2 3-0.5 3.5-1.5-4.5 1-3z" fill="#007334"/>
      <path d="m5 20 3 3-3.5 1.5-3 4c0.16667-2 0.33333-4 0.5-6 1-0.83333 2-1.6667 3-2.5z" fill="#00a349"/>
      <g fill="#007334">
        <path d="m10 13 2-2 1 1-0.5 2z"/>
        <path d="m20 13-2-2-1 1 0.5 2z"/>
        <path d="m17 16-2-5-2 5 2 2.5z"/>
      </g>
      <path d="m17 22.5-1-3-1-1-1 1-1 3 1 1h2z" fill="#00db63"/>
      <g fill="#007334">
        <path d="m12 16.5-1-1 0.5 1 1 1z"/>
        <path d="m18 16.5 1-1-0.5 1-1 1z"/>
        <path d="m26 15-2-2-5 1.5 5-1z"/>
        <path d="m4 15 2-2 5 1.5-5-1z"/>
      </g>
      <path d="m10 16-1.5-2-2.5-0.5-2 1.5 0.5 1.5z" fill="#00db63"/>
      <path d="m20 16 1.5-2 2.5-0.5 2 1.5-0.5 1.5z" fill="#00db63"/>
      <path d="m20.75 27 0.25-1-2.75 0.5z" fill="#00451f"/>
      <path d="m9.25 27-0.25-1 2.75 0.5z" fill="#00451f"/>
      <path d="m16.5 28.25-1.5-0.75-1.5 0.75 1.5 2.25z" fill="#007334"/>
      <path d="m4 28 1-3 3.5-1.5 1 1-4 1-1 2.5 1 4.5z" fill="#00451f"/>
      <path d="m26 28-1-3-3.5-1.5-1 1 4 1 1 2.5-1 4.5z" fill="#00451f"/>
      <path d="m5 20 3 3-3-1.5-2.5 2-1 5 0.5-6z" fill="#007334"/>
      <path d="m25 20-3 3 3-1.5 2.5 2 1 5-0.5-6z" fill="#007334"/>
      <path d="m26.5 15.5-0.5 2 4 5.5z" fill="#00db63"/>
      <path d="m3.5 15.5 0.5 2-4 5.5z" fill="#00db63"/>
    </g>
  </g>
</svg>
